<?xml version="1.0" encoding="UTF-8" standalone="no"?>
<svg width="850px" height="282px" viewBox="0 0 850 282" version="1.1" xmlns="http://www.w3.org/2000/svg" xmlns:xlink="http://www.w3.org/1999/xlink">
    <!-- Generator: Sketch 44.1 (41455) - http://www.bohemiancoding.com/sketch -->
    <title>Group</title>
    <desc>Created with Sketch.</desc>
    <defs></defs>
    <g id="Page-1" stroke="none" stroke-width="1" fill="none" fill-rule="evenodd">
        <g id="Group">
            <path d="M75,281.86239 C25,224.901701 0,182.614237 0,155 C0,113.578644 33.5786438,80 75,80 C116.421356,80 150,113.578644 150,155 C150,182.614237 125,224.901701 75,281.86239 Z M75,205 C102.614237,205 125,182.614237 125,155 C125,127.385763 102.614237,105 75,105 C47.3857625,105 25,127.385763 25,155 C25,182.614237 47.3857625,205 75,205 Z" id="Combined-Shape" fill="#63143F"></path>
            <path d="M165,155 C165,105.294373 124.705627,65 75,65" id="Combined-Shape" stroke="#0D5C8B" stroke-width="10"></path>
            <path d="M190,155 C190,91.4872538 138.512746,40 75,40" id="Oval-3" stroke="#0D5C8B" stroke-width="10"></path>
            <path d="M215,155 C215,77.680135 152.319865,15 75,15" id="Oval-3" stroke="#0D5C8B" stroke-width="10"></path>
            <rect id="Rectangle" fill="#FFFFFF" x="71" y="0" width="8" height="106"></rect>
            <rect id="Rectangle" fill="#FFFFFF" transform="translate(177.500000, 155.000000) rotate(90.000000) translate(-177.500000, -155.000000) " x="173.5" y="101.5" width="8" height="107"></rect>
            <circle id="Oval-2" stroke="#0D5C8B" stroke-width="6" cx="75" cy="155" r="47"></circle>
            <text id="D" font-family="Arial-BoldMT, Arial" font-size="64" font-weight="bold" fill="#63143F">
                <tspan x="54" y="179">D</tspan>
            </text>
            <path d="M302.4,258.4 L308,250.96 C301.173299,250.96 294.413367,250.946667 287.72,250.92 C281.026633,250.893333 274.266701,250.88 267.44,250.88 L267.44,241.2 C275.226706,241.2 282.999961,241.213333 290.76,241.24 C298.520039,241.266667 306.293294,241.28 314.08,241.28 C315.466674,241.28 316.653328,241.65333 317.64,242.4 C318.626672,243.14667 319.359998,244.066661 319.84,245.16 C320.320002,246.253339 320.506667,247.439994 320.4,248.72 C320.293333,250.000006 319.840004,251.173328 319.04,252.24 L307.12,268 L267.76,268 C265.573322,268 263.52001,267.586671 261.6,266.76 C259.67999,265.933329 258.01334,264.81334 256.6,263.4 C255.18666,261.98666 254.066671,260.32001 253.24,258.4 C252.413329,256.47999 252,254.426678 252,252.24 L252,239.92 C252,237.733322 252.413329,235.68001 253.24,233.76 C254.066671,231.83999 255.18666,230.160007 256.6,228.72 C258.01334,227.279993 259.67999,226.146671 261.6,225.32 C263.52001,224.493329 265.573322,224.08 267.76,224.08 L317.04,224.08 L317.04,233.76 L267.76,233.76 C266.053325,233.76 264.600006,234.359994 263.4,235.56 C262.199994,236.760006 261.6,238.213325 261.6,239.92 L261.6,252.24 C261.6,253.946675 262.199994,255.399994 263.4,256.6 C264.600006,257.800006 266.053325,258.4 267.76,258.4 L302.4,258.4 Z M372.48,251.2 C374.186675,251.2 375.639994,250.613339 376.84,249.44 C378.040006,248.266661 378.64,246.826675 378.64,245.12 L378.64,239.92 C378.64,238.213325 378.040006,236.760006 376.84,235.56 C375.639994,234.359994 374.186675,233.76 372.48,233.76 L332.8,233.76 L332.8,251.2 L372.48,251.2 Z M388.24,245.12 C388.24,247.306678 387.826671,249.346657 387,251.24 C386.173329,253.133343 385.05334,254.799993 383.64,256.24 C382.22666,257.680007 380.56001,258.813329 378.64,259.64 C376.71999,260.466671 374.666678,260.88 372.48,260.88 L332.8,260.88 L332.8,268 L323.2,268 L323.2,224.16 L372.48,224.08 C374.666678,224.08 376.71999,224.493329 378.64,225.32 C380.56001,226.146671 382.22666,227.279993 383.64,228.72 C385.05334,230.160007 386.173329,231.83999 387,233.76 C387.826671,235.68001 388.24,237.733322 388.24,239.92 L388.24,245.12 Z M391.6,258.48 L426.96,258.48 L411.12,238.8 C409.946661,237.306659 409.293334,235.706675 409.16,234 C409.026666,232.293325 409.319996,230.706674 410.04,229.24 C410.760004,227.773326 411.82666,226.546672 413.24,225.56 C414.65334,224.573328 416.31999,224.08 418.24,224.08 L453.52,224.08 L453.52,233.6 L419.12,233.6 L434.88,253.28 C436.053339,254.773341 436.706666,256.373325 436.84,258.08 C436.973334,259.786675 436.693337,261.373326 436,262.84 C435.306663,264.306674 434.25334,265.533328 432.84,266.52 C431.42666,267.506672 429.76001,268 427.84,268 L391.6,268 L391.6,258.48 Z" id="GPS" fill="#506069"></path>
            <path d="M256.171875,76.8828125 L285.84375,76.8828125 C287.765635,76.8828125 290.097643,76.9765616 292.839844,77.1640625 C295.582045,77.3515634 298.1953,77.6796852 300.679688,78.1484375 C306.445341,79.2265679 311.847631,81.1601423 316.886719,83.9492188 C321.925806,86.7382952 326.320294,90.3359155 330.070312,94.7421875 C333.820331,99.1484595 336.773427,104.257783 338.929688,110.070312 C341.085948,115.882842 342.164062,122.281215 342.164062,129.265625 C342.164062,135.828158 341.179697,141.886691 339.210938,147.441406 C337.242178,152.996122 334.535173,157.988259 331.089844,162.417969 C327.644514,166.847678 323.542993,170.597641 318.785156,173.667969 C314.02732,176.738297 308.906277,178.976555 303.421875,180.382812 C300.937488,181.085941 298.277358,181.531249 295.441406,181.71875 C292.605455,181.906251 289.500017,182 286.125,182 L256.171875,182 L256.171875,76.8828125 Z M285.5625,172.648438 C288.562515,172.648438 291.35155,172.554688 293.929688,172.367188 C296.507825,172.179687 298.898426,171.781253 301.101562,171.171875 C305.55471,170.046869 309.621075,168.183607 313.300781,165.582031 C316.980487,162.980456 320.144518,159.886737 322.792969,156.300781 C325.441419,152.714826 327.503899,148.660179 328.980469,144.136719 C330.457039,139.613259 331.195312,134.773463 331.195312,129.617188 C331.195312,123.945284 330.433601,118.75393 328.910156,114.042969 C327.386711,109.332008 325.230483,105.171893 322.441406,101.5625 C319.65233,97.953107 316.312519,94.953137 312.421875,92.5625 C308.531231,90.171863 304.242211,88.4375054 299.554688,87.359375 C297.539052,86.8906227 295.230482,86.5859382 292.628906,86.4453125 C290.027331,86.3046868 287.671886,86.234375 285.5625,86.234375 L267.140625,86.234375 L267.140625,172.648438 L285.5625,172.648438 Z M399.046875,84.96875 C394.218726,85.3906271 389.742208,86.5624904 385.617188,88.484375 C380.273411,90.9218872 375.703144,94.1796671 371.90625,98.2578125 C368.109356,102.335958 365.132823,107.093723 362.976562,112.53125 C360.820302,117.968777 359.742188,123.664033 359.742188,129.617188 C359.742188,135.664093 360.820302,141.371067 362.976562,146.738281 C365.132823,152.105496 368.109356,156.804667 371.90625,160.835938 C375.703144,164.867208 380.249974,168.078113 385.546875,170.46875 C389.718771,172.343759 394.218726,173.492185 399.046875,173.914062 L399.046875,183.265625 C392.99997,182.843748 387.281277,181.531261 381.890625,179.328125 C375.281217,176.609361 369.527368,172.824243 364.628906,167.972656 C359.730444,163.121069 355.863295,157.425814 353.027344,150.886719 C350.191392,144.347624 348.773438,137.257851 348.773438,129.617188 C348.773438,122.11715 350.214829,115.074252 353.097656,108.488281 C355.980483,101.902311 359.871069,96.1601807 364.769531,91.2617188 C369.667993,86.3632568 375.421842,82.4843893 382.03125,79.625 C387.421902,77.3281135 393.09372,75.9687521 399.046875,75.546875 L399.046875,84.96875 Z M404.601562,174.054688 C410.507842,173.867187 415.898413,172.718761 420.773438,170.609375 C426.070339,168.312489 430.617169,165.148458 434.414062,161.117188 C438.210956,157.085917 441.140615,152.386746 443.203125,147.019531 C445.265635,141.652317 446.296875,135.898468 446.296875,129.757812 C446.296875,123.382781 445.265635,117.464871 443.203125,112.003906 C441.140615,106.542941 438.234394,101.796895 434.484375,97.765625 C430.734356,93.7343548 426.210964,90.570324 420.914062,88.2734375 C415.992163,86.164052 410.554717,85.0156259 404.601562,84.828125 L404.601562,75.40625 C411.726598,75.5937509 418.382782,76.9531123 424.570312,79.484375 C431.179721,82.2500138 436.910132,86.0585695 441.761719,90.9101562 C446.613306,95.761743 450.410143,101.480436 453.152344,108.066406 C455.894545,114.652377 457.265625,121.765587 457.265625,129.40625 C457.265625,137.187539 455.871108,144.371061 453.082031,150.957031 C450.292955,157.543002 446.472681,163.261694 441.621094,168.113281 C436.769507,172.964868 431.062533,176.726549 424.5,179.398438 C418.312469,181.882825 411.679723,183.218749 404.601562,183.40625 L404.601562,174.054688 Z M468.65625,172.648438 L533.414062,172.648438 L533.414062,182 L468.726562,182 L468.65625,172.648438 Z M468.726562,123.359375 L530.8125,123.359375 L530.8125,132.78125 L468.726562,132.78125 L468.726562,123.359375 Z M468.726562,76.8828125 L533.414062,76.8828125 L533.414062,86.234375 L468.726562,86.234375 L468.726562,76.8828125 Z M610.40625,183.40625 C603.609341,183.40625 597.234405,182.1172 591.28125,179.539062 C585.328095,176.960925 580.14846,172.929715 575.742188,167.445312 L583.617188,160.835938 C586.710953,164.867208 590.58982,168.10155 595.253906,170.539062 C599.917992,172.976575 605.062472,174.195312 610.6875,174.195312 C614.062517,174.195312 617.12108,173.644537 619.863281,172.542969 C622.605482,171.441401 624.93749,169.953134 626.859375,168.078125 C628.78126,166.203116 630.269526,164.000013 631.324219,161.46875 C632.378912,158.937487 632.90625,156.218765 632.90625,153.3125 C632.90625,150.640612 632.425786,148.320322 631.464844,146.351562 C630.503901,144.382803 629.22657,142.636726 627.632812,141.113281 C626.039055,139.589836 624.140636,138.265631 621.9375,137.140625 C619.734364,136.015619 617.437512,134.98438 615.046875,134.046875 L602.671875,129.265625 C599.76561,128.140619 596.976576,126.828132 594.304688,125.328125 C591.632799,123.828118 589.289073,122.000011 587.273438,119.84375 C585.257802,117.687489 583.640631,115.19142 582.421875,112.355469 C581.203119,109.519517 580.59375,106.179707 580.59375,102.335938 C580.59375,98.5390435 581.390617,95.0000164 582.984375,91.71875 C584.578133,88.4374836 586.74608,85.6015745 589.488281,83.2109375 C592.230482,80.8203005 595.464825,78.921882 599.191406,77.515625 C602.917987,76.109368 606.960916,75.40625 611.320312,75.40625 C617.554719,75.40625 622.757792,76.2968661 626.929688,78.078125 C631.101583,79.8593839 635.015607,82.3437341 638.671875,85.53125 L632.0625,93.125 C629.249986,90.4531116 626.191423,88.4023509 622.886719,86.9726562 C619.582015,85.5429616 615.726585,84.828125 611.320312,84.828125 C608.507798,84.828125 605.929699,85.2499958 603.585938,86.09375 C601.242176,86.9375042 599.179696,88.156242 597.398438,89.75 C595.617179,91.343758 594.222661,93.195302 593.214844,95.3046875 C592.207026,97.414073 591.703125,99.7109251 591.703125,102.195312 C591.703125,104.539074 592.136714,106.589835 593.003906,108.347656 C593.871098,110.105478 595.019524,111.664056 596.449219,113.023438 C597.878913,114.382819 599.578115,115.589838 601.546875,116.644531 C603.515635,117.699224 605.601551,118.648433 607.804688,119.492188 L619.757812,124.273438 C622.851578,125.492194 625.839829,126.89843 628.722656,128.492188 C631.605483,130.085945 634.171864,132.007801 636.421875,134.257812 C638.671886,136.507824 640.464837,139.167953 641.800781,142.238281 C643.136725,145.308609 643.804688,148.953104 643.804688,153.171875 C643.804688,157.437521 642.949227,161.410138 641.238281,165.089844 C639.527335,168.76955 637.160171,171.980455 634.136719,174.722656 C631.113266,177.464857 627.56252,179.597649 623.484375,181.121094 C619.40623,182.644539 615.046898,183.40625 610.40625,183.40625 Z M701.742188,84.96875 C696.914038,85.3906271 692.437521,86.5624904 688.3125,88.484375 C682.968723,90.9218872 678.398456,94.1796671 674.601562,98.2578125 C670.804669,102.335958 667.828136,107.093723 665.671875,112.53125 C663.515614,117.968777 662.4375,123.664033 662.4375,129.617188 C662.4375,135.664093 663.515614,141.371067 665.671875,146.738281 C667.828136,152.105496 670.804669,156.804667 674.601562,160.835938 C678.398456,164.867208 682.945286,168.078113 688.242188,170.46875 C692.414083,172.343759 696.914038,173.492185 701.742188,173.914062 L701.742188,183.265625 C695.695282,182.843748 689.976589,181.531261 684.585938,179.328125 C677.976529,176.609361 672.222681,172.824243 667.324219,167.972656 C662.425757,163.121069 658.558608,157.425814 655.722656,150.886719 C652.886705,144.347624 651.46875,137.257851 651.46875,129.617188 C651.46875,122.11715 652.910142,115.074252 655.792969,108.488281 C658.675796,101.902311 662.566382,96.1601807 667.464844,91.2617188 C672.363306,86.3632568 678.117154,82.4843893 684.726562,79.625 C690.117214,77.3281135 695.789033,75.9687521 701.742188,75.546875 L701.742188,84.96875 Z M707.296875,174.054688 C713.203155,173.867187 718.593726,172.718761 723.46875,170.609375 C728.765651,168.312489 733.312481,165.148458 737.109375,161.117188 C740.906269,157.085917 743.835927,152.386746 745.898438,147.019531 C747.960948,141.652317 748.992188,135.898468 748.992188,129.757812 C748.992188,123.382781 747.960948,117.464871 745.898438,112.003906 C743.835927,106.542941 740.929706,101.796895 737.179688,97.765625 C733.429669,93.7343548 728.906276,90.570324 723.609375,88.2734375 C718.687475,86.164052 713.25003,85.0156259 707.296875,84.828125 L707.296875,75.40625 C714.421911,75.5937509 721.078094,76.9531123 727.265625,79.484375 C733.875033,82.2500138 739.605444,86.0585695 744.457031,90.9101562 C749.308618,95.761743 753.105455,101.480436 755.847656,108.066406 C758.589857,114.652377 759.960938,121.765587 759.960938,129.40625 C759.960938,137.187539 758.56642,144.371061 755.777344,150.957031 C752.988267,157.543002 749.167993,163.261694 744.316406,168.113281 C739.464819,172.964868 733.757845,176.726549 727.195312,179.398438 C721.007782,181.882825 714.375035,183.218749 707.296875,183.40625 L707.296875,174.054688 Z M838.851562,76.8828125 L849.820312,76.8828125 L849.820312,182 L838.851562,182 L838.851562,76.8828125 Z M782.390625,182 L771.421875,182 L771.421875,76.8828125 L782.390625,76.8828125 L782.390625,182 Z" id="DOE-SOH" fill="#63143F"></path>
            <path d="M487,224.16 L543.8,224.16 L543.8,233.76 L520.68,233.76 L520.68,268 L510.12,268 L510.12,233.76 L487,233.76 L487,224.16 Z M540.92,268 L540.92,252.24 C540.92,250.053322 541.333329,248.00001 542.16,246.08 C542.986671,244.15999 544.10666,242.49334 545.52,241.08 C546.93334,239.66666 548.59999,238.546671 550.52,237.72 C552.44001,236.893329 554.493322,236.48 556.68,236.48 L573.88,236.48 L573.88,246.08 L556.68,246.08 C554.973325,246.08 553.520006,246.679994 552.32,247.88 C551.119994,249.080006 550.52,250.533325 550.52,252.24 L550.52,268 L540.92,268 Z M616.76,268 L591.64,268 C589.453322,268 587.40001,267.586671 585.48,266.76 C583.55999,265.933329 581.89334,264.81334 580.48,263.4 C579.06666,261.98666 577.946671,260.32001 577.12,258.4 C576.293329,256.47999 575.88,254.426678 575.88,252.24 C575.88,250.053322 576.293329,248.00001 577.12,246.08 C577.946671,244.15999 579.06666,242.49334 580.48,241.08 C581.89334,239.66666 583.55999,238.546671 585.48,237.72 C587.40001,236.893329 589.453322,236.48 591.64,236.48 L616.36,236.48 C618.546678,236.48 620.59999,236.893329 622.52,237.72 C624.44001,238.546671 626.10666,239.66666 627.52,241.08 C628.93334,242.49334 630.053329,244.15999 630.88,246.08 C631.706671,248.00001 632.12,250.053322 632.12,252.24 L632.12,268 L622.52,268 L622.52,252.24 C622.52,250.533325 621.920006,249.080006 620.72,247.88 C619.519994,246.679994 618.066675,246.08 616.36,246.08 L591.64,246.08 C589.933325,246.08 588.480006,246.679994 587.28,247.88 C586.079994,249.080006 585.48,250.533325 585.48,252.24 C585.48,253.946675 586.079994,255.399994 587.28,256.6 C588.480006,257.800006 589.933325,258.4 591.64,258.4 L616.76,258.4 L616.76,268 Z M687.88,268 L650.76,268 C648.573322,268 646.52001,267.586671 644.6,266.76 C642.67999,265.933329 641.01334,264.81334 639.6,263.4 C638.18666,261.98666 637.066671,260.32001 636.24,258.4 C635.413329,256.47999 635,254.426678 635,252.24 C635,250.053322 635.413329,248.00001 636.24,246.08 C637.066671,244.15999 638.18666,242.49334 639.6,241.08 C641.01334,239.66666 642.67999,238.546671 644.6,237.72 C646.52001,236.893329 648.573322,236.48 650.76,236.48 L687.88,236.48 L687.88,246.08 L650.76,246.08 C649.053325,246.08 647.600006,246.679994 646.4,247.88 C645.199994,249.080006 644.6,250.533325 644.6,252.24 C644.6,253.946675 645.199994,255.399994 646.4,256.6 C647.600006,257.800006 649.053325,258.4 650.76,258.4 L687.88,258.4 L687.88,268 Z M728.2,268 L717.16,256.96 L700.44,256.96 L700.44,268 L690.84,268 L690.84,226.8 L700.44,226.8 L700.44,247.52 L717.16,247.52 L728.2,236.48 L741.64,236.48 L725.8,252.24 L741.64,268 L728.2,268 Z M793.8,258.4 L793.8,268 L756.68,268 C754.493322,268 752.44001,267.586671 750.52,266.76 C748.59999,265.933329 746.93334,264.81334 745.52,263.4 C744.10666,261.98666 742.986671,260.32001 742.16,258.4 C741.333329,256.47999 740.92,254.426678 740.92,252.24 C740.92,250.053322 741.333329,248.00001 742.16,246.08 C742.986671,244.15999 744.10666,242.49334 745.52,241.08 C746.93334,239.66666 748.59999,238.546671 750.52,237.72 C752.44001,236.893329 754.493322,236.48 756.68,236.48 L787.96,236.48 C789.29334,236.48 790.466662,236.826663 791.48,237.52 C792.493338,238.213337 793.239998,239.079995 793.72,240.12 C794.200002,241.160005 794.4,242.293327 794.32,243.52 C794.24,244.746673 793.773338,245.866662 792.92,246.88 L783.72,258.4 L793.8,258.4 Z M756.68,245.84 C755.826662,245.84 755.02667,246.013332 754.28,246.36 C753.53333,246.706668 752.880003,247.17333 752.32,247.76 C751.759997,248.34667 751.320002,249.026663 751,249.8 C750.679998,250.573337 750.52,251.386662 750.52,252.24 C750.52,253.946675 751.119994,255.399994 752.32,256.6 C753.520006,257.800006 754.973325,258.4 756.68,258.4 L771.88,258.4 L781.88,245.84 L756.68,245.84 Z M797.56,268 L797.56,252.24 C797.56,250.053322 797.973329,248.00001 798.8,246.08 C799.626671,244.15999 800.74666,242.49334 802.16,241.08 C803.57334,239.66666 805.23999,238.546671 807.16,237.72 C809.08001,236.893329 811.133322,236.48 813.32,236.48 L830.52,236.48 L830.52,246.08 L813.32,246.08 C811.613325,246.08 810.160006,246.679994 808.96,247.88 C807.759994,249.080006 807.16,250.533325 807.16,252.24 L807.16,268 L797.56,268 Z" id="Tracker" fill="#000000"></path>
        </g>
    </g>
</svg>